<svg width="349" height="92" viewBox="0 0 349 92" fill="none" xmlns="http://www.w3.org/2000/svg">
<path d="M39.4873 91.1746L0 68.3839V22.7907L39.4873 0L78.9746 22.7907V68.3839L39.4873 91.1746ZM3.54995 66.3249L39.4873 87.0685L75.4247 66.3249V24.8378L39.4873 4.09428L3.54995 24.8378V66.3249Z" fill="#5EEF00"/>
<path d="M40.3745 90.6536H38.5995L0.887147 68.8806L0.236328 66.4548L37.9487 1.14746H41.0253L78.7376 66.4548L78.0868 68.8806L40.3745 90.6536ZM4.20044 66.6914L39.487 87.0563L74.7735 66.6914L39.487 5.5849L4.20044 66.6914Z" fill="#5EEF00"/>
<path d="M52.1255 69.1292H26.9919L25.4536 68.2417L12.8867 46.4687V44.6937L25.4536 22.9207L26.9919 22.0332H52.1255L53.6638 22.9207L66.2307 44.6937V46.4687L53.6638 68.2417L52.1255 69.1292ZM28.0095 65.5793H51.096L62.6452 45.5812L51.096 25.5832H28.0095L16.4603 45.5812L28.0095 65.5793Z" fill="#5EEF00"/>
<path d="M49.5808 58.941H29.1449L27.5711 56.243L39.7238 45.889L27.4883 34.8368L29.1449 32.2217H49.4152L51.9593 36.5881L48.8945 38.3868L47.4153 35.7716H33.7717L43.6169 44.611L43.5696 47.2853L33.9965 55.391H47.439L49.1193 52.7167L52.2078 54.4799L49.5808 58.941Z" fill="#5EEF00"/>
<path d="M37.9487 90.0032L0.236328 24.6959L0.887147 22.2701L38.5995 0.49707H40.3745L78.0868 22.2701L78.7376 24.6959L41.0253 90.0032H37.9487ZM4.20044 24.4592L39.487 85.5658L74.7735 24.4592L39.487 4.09436L4.20044 24.4592Z" fill="#5EEF00"/>
<path d="M141.795 22.1711V31.286H118.391C114.277 31.286 111.289 32.4118 109.406 34.6635C107.522 36.9151 106.591 40.6174 106.591 45.727C106.591 50.8365 107.522 54.5388 109.406 56.7688C111.289 59.0205 114.277 60.1247 118.391 60.1247H141.795V69.3478H117.481C111.16 69.3478 106.18 67.4209 102.499 63.5454C98.8403 59.67 97 53.7377 97 45.727C97 37.7162 98.8403 31.8273 102.499 27.9518C106.158 24.0763 111.16 22.1494 117.481 22.1494H141.795V22.1711Z" fill="#0C0C0C"/>
<path d="M181.263 22.1719C187.52 22.1719 192.5 24.1205 196.202 28.0176C199.904 31.9147 201.745 37.8253 201.745 45.7495C201.745 53.6736 199.904 59.6925 196.202 63.5679C192.5 67.4434 187.52 69.3703 181.263 69.3703H171.304C164.982 69.3703 160.002 67.4434 156.322 63.5679C152.663 59.6925 150.822 53.7602 150.822 45.7495C150.822 37.7387 152.663 31.8497 156.322 27.9743C159.98 24.0988 164.982 22.1719 171.304 22.1719H181.263ZM172.213 31.2868C168.099 31.2868 165.112 32.4126 163.228 34.6643C161.344 36.916 160.413 40.6182 160.413 45.7278C160.413 50.8373 161.344 54.5396 163.228 56.7696C165.112 59.0213 168.099 60.1255 172.213 60.1255H180.332C184.467 60.1255 187.477 58.9996 189.36 56.7696C191.244 54.518 192.175 50.8373 192.175 45.7278C192.175 40.6182 191.244 36.916 189.36 34.6643C187.477 32.4126 184.467 31.2868 180.332 31.2868H172.213Z" fill="#0C0C0C"/>
<path d="M252.451 22.1719V31.2868H226.341C224.132 31.2868 222.552 31.7415 221.578 32.6291C220.625 33.5168 220.127 34.8592 220.127 36.6345C220.127 38.4099 220.582 39.6007 221.534 40.4667C222.465 41.3327 224.241 41.7441 226.86 41.7441H237.945C241.236 41.7441 243.943 42.1121 246.043 42.805C248.143 43.5194 249.81 44.4721 251.044 45.6628C252.257 46.8536 253.123 48.2609 253.599 49.8847C254.075 51.5085 254.313 53.2189 254.313 55.0592C254.313 57.1593 254.032 59.0862 253.469 60.8399C252.906 62.5936 251.997 64.1092 250.741 65.3649C249.485 66.6207 247.883 67.595 245.913 68.3094C243.943 69.0239 241.583 69.3703 238.811 69.3703H211.38V60.1471H238.811C241.02 60.1471 242.6 59.7358 243.575 58.9563C244.527 58.1553 245.025 56.8129 245.025 54.951C245.025 53.089 244.506 51.7034 243.445 50.8806C242.406 50.0579 240.673 49.6682 238.292 49.6682H227.12C223.851 49.6682 221.188 49.3001 219.088 48.564C216.988 47.8279 215.342 46.8103 214.108 45.5329C212.896 44.2556 212.03 42.7833 211.553 41.0945C211.077 39.4275 210.839 37.6954 210.839 35.92C210.839 31.6982 212.03 28.3423 214.411 25.8741C216.793 23.406 220.733 22.1719 226.254 22.1719H252.451Z" fill="#0C0C0C"/>
<path d="M296.249 22.1719C301.856 22.1719 305.926 23.4276 308.438 25.9607C310.949 28.4939 312.183 32.0446 312.183 36.6129C312.183 41.1812 310.971 44.3421 308.525 46.7021C306.078 49.062 301.964 50.2311 296.162 50.2311H273.71V53.6303C273.71 55.5139 274.252 57.0727 275.377 58.3068C276.503 59.5409 278.343 60.1471 280.963 60.1471H309.824V69.3703H280.963C277.997 69.3703 275.486 68.9806 273.407 68.2012C271.35 67.4217 269.64 66.3392 268.298 64.9319C266.955 63.5246 265.981 61.8792 265.396 59.9956C264.79 58.1119 264.509 56.0551 264.509 53.8035V37.6954C264.509 35.4871 264.812 33.4302 265.396 31.525C266.003 29.6197 266.955 27.9743 268.298 26.567C269.64 25.1597 271.35 24.0772 273.407 23.3194C275.486 22.54 277.997 22.1719 280.963 22.1719H296.249ZM273.71 42.8266H295.902C298.457 42.8266 300.276 42.307 301.315 41.2894C302.354 40.2718 302.895 38.9078 302.895 37.1758C302.895 35.4437 302.354 33.9498 301.272 32.8673C300.189 31.8064 298.5 31.2652 296.162 31.2652H280.963C278.343 31.2652 276.482 31.893 275.377 33.1488C274.273 34.4045 273.71 35.9417 273.71 37.782V42.805V42.8266Z" fill="#0C0C0C"/>
<path d="M325.5 22.1717V11H335.07V22.1717H348.125V31.2866H335.07V53.6518C335.07 56.3364 335.568 58.1768 336.542 59.1727C337.516 60.1686 339.14 60.6882 341.414 60.6882H347.974V69.3701H339.465C337.019 69.3701 334.918 69.1103 333.165 68.5691C331.411 68.0278 329.96 67.1401 328.813 65.8844C327.665 64.6286 326.843 62.9615 326.323 60.8831C325.803 58.8046 325.544 56.2066 325.544 53.0889V31.2866H319.092V22.1717H325.544H325.5Z" fill="#0C0C0C"/>
</svg>
